<svg xmlns="http://www.w3.org/2000/svg" xmlns:xlink="http://www.w3.org/1999/xlink" viewBox="0 0 481.89 108.01"><defs><style>.a{fill:url(#a);}.b{fill:url(#b);}.c{fill:url(#c);}.d{fill:url(#d);}.e{fill:url(#e);}.f{fill:url(#f);}.g{fill:url(#g);}.h{fill:url(#h);}.i{fill:url(#i);}.j{fill:url(#j);}.k{fill:url(#k);}.l{fill:url(#l);}.m{fill:url(#m);}.n{fill:url(#n);}.o{fill:url(#o);}.p{fill:url(#p);}.q{fill:url(#q);}.r{fill:url(#r);}.s{fill:url(#s);}</style><linearGradient id="a" x1="240.86" y1="20.48" x2="240.86" y2="70.65" gradientUnits="userSpaceOnUse"><stop offset="0" stop-color="#14191e"/><stop offset="0.19" stop-color="#1b2025"/><stop offset="0.46" stop-color="#2e3338"/><stop offset="0.5" stop-color="#32373c"/><stop offset="0.5" stop-color="#2b3035"/><stop offset="0.51" stop-color="#181d22"/><stop offset="0.51" stop-color="#14191e"/><stop offset="0.8" stop-color="#1b2025"/><stop offset="1" stop-color="#23282d"/></linearGradient><linearGradient id="b" x1="263.39" y1="93.07" x2="263.39" y2="107.79" xlink:href="#a"/><linearGradient id="c" x1="291.74" y1="92.85" x2="291.74" y2="108.01" xlink:href="#a"/><linearGradient id="d" x1="320.72" y1="93.07" x2="320.72" y2="108.01" xlink:href="#a"/><linearGradient id="e" x1="349.73" y1="93.07" x2="349.73" y2="107.79" xlink:href="#a"/><linearGradient id="f" x1="6.03" y1="92.85" x2="6.03" y2="108.01" gradientUnits="userSpaceOnUse"><stop offset="0" stop-color="#ff5f00"/><stop offset="0.27" stop-color="#ff6506"/><stop offset="0.48" stop-color="#ff6e0f"/><stop offset="0.48" stop-color="#fe690c"/><stop offset="0.49" stop-color="#fd5e05"/><stop offset="0.49" stop-color="#fc5701"/><stop offset="0.51" stop-color="#fc5500"/><stop offset="0.78" stop-color="#fe6300"/><stop offset="1" stop-color="#ff6900"/></linearGradient><linearGradient id="g" x1="33.58" y1="93.07" x2="33.58" y2="107.79" xlink:href="#f"/><linearGradient id="h" x1="62.2" y1="93.07" x2="62.2" y2="107.79" xlink:href="#f"/><linearGradient id="i" x1="89.57" y1="93.07" x2="89.57" y2="107.79" xlink:href="#f"/><linearGradient id="j" x1="115.57" y1="93.07" x2="115.57" y2="107.79" xlink:href="#f"/><linearGradient id="k" x1="141.9" y1="93.07" x2="141.9" y2="107.79" xlink:href="#f"/><linearGradient id="l" x1="169.74" y1="93.07" x2="169.74" y2="107.79" xlink:href="#f"/><linearGradient id="m" x1="199.04" y1="92.85" x2="199.04" y2="108.01" xlink:href="#f"/><linearGradient id="n" x1="227.15" y1="93.07" x2="227.15" y2="107.79" xlink:href="#f"/><linearGradient id="o" x1="386.97" y1="92.85" x2="386.97" y2="108.01" xlink:href="#a"/><linearGradient id="p" x1="415.34" y1="93.07" x2="415.34" y2="107.79" xlink:href="#a"/><linearGradient id="q" x1="445.76" y1="93.07" x2="445.76" y2="107.79" xlink:href="#a"/><linearGradient id="r" x1="475.92" y1="93.07" x2="475.92" y2="107.79" xlink:href="#a"/><linearGradient id="s" x1="361.32" y1="0" x2="361.32" y2="41.78" xlink:href="#f"/></defs><path class="a" d="M5,21.92q-5,1.81-5,4.82V70.6H23.49V49.92H56.38V41.15H23.49v-10c0-1.25,1.25-1.88,3.76-1.88H56.38V20.48H14.09A27.41,27.41,0,0,0,5,21.92Zm118.17.44A22.73,22.73,0,0,0,114,20.48,20.86,20.86,0,0,0,105,22.42a12,12,0,0,0-5.73,5L76.64,70.6H89.79l3.28-6.27h30.12l3.26,6.27h25.37L129.07,27.18C128,25.22,126.06,23.61,123.18,22.36ZM97.74,55.56,108.15,35.7l10.4,19.86Zm83.34-27.72q-11,7.36-11,17.69t11,17.7q11,7.38,26.5,7.37h28.19V61.83H207.58c-4.89,0-8.18-2.07-9.9-6.2-.92-2.26-1.37-5.62-1.37-10.1s.45-7.82,1.37-10.08c1.72-4.13,5-6.2,9.9-6.2h28.19V20.48H207.58Q192.1,20.48,181.08,27.84Zm89.55-5.92q-5,1.81-5,4.82V64.33q0,3,5,4.83a27.45,27.45,0,0,0,9.08,1.44H322V61.83H292.87c-2.52,0-3.77-.63-3.77-1.89v-10H322V41.15H289.1v-10c0-1.25,1.25-1.88,3.77-1.88H322V20.48H279.71A27.45,27.45,0,0,0,270.63,21.92ZM362,70.31l0-.1h25.27V53.08L362,42.87Zm47.06-49.78V29.3h20.76c2.46,0,3.7.62,3.7,1.88V70.65h23.71V31.18c0-1.26,1.23-1.88,3.69-1.88h20.76V20.53Z"/><polygon class="b" points="266.42 93.07 266.21 93.07 266.11 93.24 263.39 98.2 260.63 93.24 260.54 93.07 260.33 93.07 256.39 93.07 255.79 93.07 256.1 93.56 261.29 101.92 261.29 107.46 261.29 107.79 261.63 107.79 265.1 107.79 265.44 107.79 265.44 107.46 265.44 101.88 270.67 93.57 270.99 93.07 270.38 93.07 266.42 93.07"/><path class="c" d="M297.09,94a7.11,7.11,0,0,0-1.8-.74,9.72,9.72,0,0,0-1.86-.34c-.54,0-1.11-.07-1.7-.07s-1.15,0-1.68.07a9.77,9.77,0,0,0-1.85.34,6.89,6.89,0,0,0-1.79.74,4,4,0,0,0-1.32,1.37,4,4,0,0,0-.55,2.08v6.15a3.7,3.7,0,0,0,.76,2.35,4.17,4.17,0,0,0,2,1.37,13,13,0,0,0,2.22.55,17.32,17.32,0,0,0,2.23.14,14.87,14.87,0,0,0,2.36-.18,11.85,11.85,0,0,0,2.26-.61,4.31,4.31,0,0,0,1.89-1.39,3.58,3.58,0,0,0,.71-2.23V97.45a4,4,0,0,0-.54-2.09A3.92,3.92,0,0,0,297.09,94Zm-5.32,10.94c-.48,0-.88,0-1.2,0a6.44,6.44,0,0,1-1-.2,1.19,1.19,0,0,1-.66-.39,1,1,0,0,1-.22-.7V97.42a1.13,1.13,0,0,1,.66-1.14,6,6,0,0,1,2.38-.36,5.79,5.79,0,0,1,2.38.37,1.13,1.13,0,0,1,.67,1.13v6.18a1.1,1.1,0,0,1-.21.7,1.17,1.17,0,0,1-.64.39,6,6,0,0,1-1,.2C292.65,104.92,292.24,104.94,291.77,104.94Z"/><path class="d" d="M323.51,93.07h-.34V103.6a1.09,1.09,0,0,1-.45,1,6.44,6.44,0,0,1-4,0,1,1,0,0,1-.48-1V93.07H314.1V103.6c0,2.93,2.23,4.41,6.61,4.41s6.62-1.48,6.62-4.41V93.07h-3.82Z"/><path class="e" d="M356.29,107.27l-3.88-5.36a4.89,4.89,0,0,0,2-.84,2.62,2.62,0,0,0,1.09-2.24V96.37a2.69,2.69,0,0,0-1.51-2.6,9.92,9.92,0,0,0-4.32-.7H342.8v14.72H347v-5.52H348l3.69,5.37.09.15h4.85ZM347,96.14h2.64a3,3,0,0,1,1.46.24c.07,0,.32.19.32.78v1a1.22,1.22,0,0,1-.31,1,2.75,2.75,0,0,1-1.47.25H347Z"/><path class="f" d="M7.4,104.94c-3.24,0-3.24-1.19-3.24-1.58v-6a1.38,1.38,0,0,1,.2-.8,1.09,1.09,0,0,1,.6-.42,4.09,4.09,0,0,1,.93-.2c.31,0,.71,0,1.2,0a20.52,20.52,0,0,1,4.47.6l.42.09V93.37l-.29,0a31.09,31.09,0,0,0-4.64-.48c-4.68,0-7,1.54-7,4.57v6.18a3.6,3.6,0,0,0,.52,2,3.84,3.84,0,0,0,1.25,1.31,5.83,5.83,0,0,0,1.75.72,13,13,0,0,0,1.81.33c.54,0,1.12.08,1.72.08a25.07,25.07,0,0,0,4.74-.48l.28-.06v-3.25l-.42.1A20.5,20.5,0,0,1,7.4,104.94Z"/><polygon class="g" points="36.65 93.07 36.31 93.07 36.31 93.4 36.31 98.7 30.85 98.7 30.85 93.4 30.85 93.07 30.5 93.07 27.03 93.07 26.69 93.07 26.69 93.4 26.69 107.46 26.69 107.79 27.03 107.79 30.5 107.79 30.85 107.79 30.85 107.46 30.85 101.77 36.31 101.77 36.31 107.46 36.31 107.79 36.65 107.79 40.13 107.79 40.47 107.79 40.47 107.46 40.47 93.4 40.47 93.07 40.13 93.07 36.65 93.07"/><path class="h" d="M64.71,93.28l-.09-.21h-4.7l-.09.21-5.34,14.06-.17.45h4.16l.08-.22,1.19-3.49h4.79l1.22,3.49.07.22h4.26l-.17-.45Zm-.92,8.06H60.52l1.64-4.74Z"/><polygon class="i" points="88.1 104.72 88.1 93.4 88.1 93.07 87.76 93.07 84.28 93.07 83.94 93.07 83.94 93.4 83.94 107.46 83.94 107.79 84.28 107.79 94.86 107.79 95.2 107.79 95.2 107.46 95.2 105.05 95.2 104.72 94.86 104.72 88.1 104.72"/><polygon class="j" points="114.09 104.72 114.09 93.4 114.09 93.07 113.75 93.07 110.28 93.07 109.94 93.07 109.94 93.4 109.94 107.46 109.94 107.79 110.28 107.79 120.86 107.79 121.2 107.79 121.2 107.46 121.2 105.05 121.2 104.72 120.86 104.72 114.09 104.72"/><polygon class="k" points="140.09 104.72 140.09 101.77 146.57 101.77 146.91 101.77 146.91 101.44 146.91 99.03 146.91 98.7 146.57 98.7 140.09 98.7 140.09 96.14 147.3 96.14 147.64 96.14 147.64 95.8 147.64 93.4 147.64 93.07 147.3 93.07 136.27 93.07 135.93 93.07 135.93 93.4 135.93 107.46 135.93 107.79 136.27 107.79 147.52 107.79 147.86 107.79 147.86 107.46 147.86 105.05 147.86 104.72 147.52 104.72 140.09 104.72"/><polygon class="l" points="173.45 93.07 173.11 93.07 173.11 93.4 173.11 101.95 166.74 93.21 166.63 93.07 166.46 93.07 162.94 93.07 162.6 93.07 162.6 93.4 162.6 107.46 162.6 107.79 162.94 107.79 166.03 107.79 166.38 107.79 166.38 107.46 166.38 98.77 172.75 107.65 172.85 107.79 173.03 107.79 176.55 107.79 176.89 107.79 176.89 107.46 176.89 93.4 176.89 93.07 176.55 93.07 173.45 93.07"/><path class="m" d="M202.31,100.07H202v2.16h0v2.46a9,9,0,0,1-2,.25,8.38,8.38,0,0,1-2.9-.39,1.17,1.17,0,0,1-.84-1.19V97.7c0-.44,0-1.78,3.42-1.78a26.06,26.06,0,0,1,5.81.6l.42.09V93.36l-.29,0a36.68,36.68,0,0,0-5.94-.46,17.84,17.84,0,0,0-2,.1,11,11,0,0,0-2,.42,7.32,7.32,0,0,0-1.8.83,4.05,4.05,0,0,0-1.29,1.45,4.32,4.32,0,0,0-.51,2.1v5.85a4,4,0,0,0,.44,1.89,3.65,3.65,0,0,0,1.17,1.29,6.07,6.07,0,0,0,1.72.75,11.93,11.93,0,0,0,2,.38c.66.06,1.4.1,2.21.1a21.4,21.4,0,0,0,3.23-.27,16.59,16.59,0,0,0,2.9-.66L206,107v-6.92h-3.68Z"/><polygon class="n" points="232.78 104.72 225.34 104.72 225.34 101.77 231.82 101.77 232.16 101.77 232.16 101.44 232.16 99.03 232.16 98.7 231.82 98.7 225.34 98.7 225.34 96.14 232.55 96.14 232.89 96.14 232.89 95.8 232.89 93.4 232.89 93.07 232.55 93.07 221.53 93.07 221.19 93.07 221.19 93.4 221.19 107.46 221.19 107.79 221.53 107.79 232.78 107.79 233.12 107.79 233.12 107.46 233.12 105.05 233.12 104.72 232.78 104.72"/><path class="o" d="M390.24,100.07h-.34v1.87h0v2.74a9,9,0,0,1-2,.25,8.38,8.38,0,0,1-2.9-.39,1.17,1.17,0,0,1-.84-1.19V97.7c0-.44,0-1.78,3.42-1.78a26.06,26.06,0,0,1,5.81.6l.41.09V93.36l-.28,0a36.5,36.5,0,0,0-5.94-.46,17.84,17.84,0,0,0-2,.1,11,11,0,0,0-2,.42,7.15,7.15,0,0,0-1.8.83,3.94,3.94,0,0,0-1.28,1.45,4.12,4.12,0,0,0-.52,2.1v5.85a4,4,0,0,0,.44,1.89,3.56,3.56,0,0,0,1.17,1.29,6.14,6.14,0,0,0,1.73.75,11.63,11.63,0,0,0,2,.38c.67.06,1.4.1,2.21.1a21.29,21.29,0,0,0,3.23-.27,16.17,16.17,0,0,0,2.9-.66l.23-.09v-6.92h-3.68Z"/><path class="p" d="M417.84,93.28l-.08-.21h-4.71l-.08.21-5.35,14.06-.16.45h4.16l.07-.22,1.2-3.49h4.79l1.22,3.49.07.22h4.25l-.16-.45Zm-.91,8.06h-3.27l1.64-4.73Z"/><polygon class="q" points="449.45 93.07 449.2 93.07 449.13 93.29 445.92 102.43 442.69 93.29 442.61 93.07 442.36 93.07 437.42 93.07 437.08 93.07 437.08 93.4 437.08 107.46 437.08 107.79 437.42 107.79 440.6 107.79 440.94 107.79 440.94 107.46 440.94 98.76 444.14 107.57 444.21 107.79 444.45 107.79 447.24 107.79 447.49 107.79 447.56 107.57 450.62 98.86 450.62 107.46 450.62 107.79 450.96 107.79 454.11 107.79 454.44 107.79 454.44 107.46 454.44 93.4 454.44 93.07 454.11 93.07 449.45 93.07"/><polygon class="r" points="481.55 104.72 474.11 104.72 474.11 101.77 480.59 101.77 480.93 101.77 480.93 101.44 480.93 99.03 480.93 98.7 480.59 98.7 474.11 98.7 474.11 96.14 481.32 96.14 481.67 96.14 481.67 95.8 481.67 93.4 481.67 93.07 481.32 93.07 470.3 93.07 469.95 93.07 469.95 93.4 469.95 107.46 469.95 107.79 470.3 107.79 481.55 107.79 481.89 107.79 481.89 107.46 481.89 105.05 481.89 104.72 481.55 104.72"/><path class="s" d="M387.76.41a.36.36,0,0,0-.67-.23c-6.44,9.89-10.06,15.54-13.33,20.66-12.17,0-29.68,0-38.4,0-.47,0-.67.62-.25.78,15.93,6,38.95,15.06,51.79,20.14.33.13.86-.18.86-.41Z"/></svg>