<svg width="62" height="62" viewBox="0 0 62 62" fill="none" xmlns="http://www.w3.org/2000/svg">
<g clip-path="url(#clip0_289_3706)">
<path d="M61.2606 34.4697C58.4026 59.3899 52.4488 64.1199 27.5286 61.2603C2.60838 58.4022 -2.11856 52.4484 0.737967 27.5282C3.59604 2.60801 9.54985 -2.12047 34.47 0.739148C59.3902 3.59568 64.1202 9.54949 61.2606 34.4697V34.4697Z" fill="url(#paint0_radial_289_3706)"/>
<path d="M22.331 27.7687C25.5902 27.7687 28.2324 25.1266 28.2324 21.8674C28.2324 18.6082 25.5902 15.9661 22.331 15.9661C19.0718 15.9661 16.4297 18.6082 16.4297 21.8674C16.4297 25.1266 19.0718 27.7687 22.331 27.7687Z" fill="white"/>
<path d="M20.5511 45.0103C16.7053 45.0103 14.9785 42.2371 15.2655 38.3991L16.5063 21.2923C16.7377 18.0484 19.5387 15.7197 22.7548 16.0932C25.9725 16.4651 28.3923 19.3972 28.1562 22.6396L26.9154 39.7463C26.6932 42.3791 23.8567 45.0103 20.5496 45.0103H20.5511Z" fill="url(#paint1_linear_289_3706)"/>
<path d="M41.892 16.1177C39.4398 16.1177 37.3487 17.164 35.4012 20.0838L27.5399 31.8757L28.2251 22.644C28.4782 19.3986 26.5306 16.1177 22.4194 16.1177C18.8129 16.1177 16.7218 18.2458 16.4687 21.4912L15.2434 38.3681C14.9193 42.6953 17.0829 44.9669 20.6524 44.9669C23.9704 44.9669 26.2065 42.6228 27.793 40.2431L35.4027 28.8478L34.7175 38.3681C34.4289 42.3342 36.341 44.9669 40.3071 44.9669C43.8766 44.9669 46.2208 42.9468 46.4368 39.7014L47.6622 22.644C47.8782 19.3986 46.2563 16.1177 41.892 16.1177Z" fill="url(#paint2_linear_289_3706)"/>
</g>
<defs>
<radialGradient id="paint0_radial_289_3706" cx="0" cy="0" r="1" gradientUnits="userSpaceOnUse" gradientTransform="translate(40.8017 45.745) rotate(-115.56) scale(59.2098)">
<stop offset="0.68" stop-color="#F30745"/>
<stop offset="1" stop-color="#FFBCCE"/>
</radialGradient>
<linearGradient id="paint1_linear_289_3706" x1="19.048" y1="44.7912" x2="22.3721" y2="26.9159" gradientUnits="userSpaceOnUse">
<stop offset="0.15" stop-color="white"/>
<stop offset="0.62" stop-color="white" stop-opacity="0.6"/>
<stop offset="1" stop-color="white" stop-opacity="0"/>
</linearGradient>
<linearGradient id="paint2_linear_289_3706" x1="30.1649" y1="30.4003" x2="18.1169" y2="28.871" gradientUnits="userSpaceOnUse">
<stop offset="0.15" stop-color="white"/>
<stop offset="0.62" stop-color="white" stop-opacity="0.6"/>
<stop offset="1" stop-color="white" stop-opacity="0"/>
</linearGradient>
<clipPath id="clip0_289_3706">
<rect width="62" height="62" fill="white"/>
</clipPath>
</defs>
</svg>
