<svg width="226" height="120" viewBox="0 0 226 120" fill="none" xmlns="http://www.w3.org/2000/svg">
<path d="M119.136 66.7151C113.576 114.949 101.997 124.103 53.5372 118.57C5.07391 113.034 -4.12102 101.513 1.43557 53.2793C6.99516 5.0454 18.5736 -4.10304 67.0369 1.43024C115.5 6.96053 124.695 18.4812 119.136 66.7151Z" fill="url(#paint0_radial_289_3423)"/>
<path d="M42.4896 53.7451C48.8278 53.7451 53.966 48.6312 53.966 42.323C53.966 36.0147 48.8278 30.9009 42.4896 30.9009C36.1513 30.9009 31.0132 36.0147 31.0132 42.323C31.0132 48.6312 36.1513 53.7451 42.4896 53.7451Z" fill="white"/>
<path d="M39.0316 87.1156C31.5538 87.1156 28.1946 81.7496 28.753 74.3192L31.1665 41.2091C31.6168 34.9319 37.0653 30.4234 43.3184 31.1464C49.5774 31.8635 54.2815 37.5402 53.8222 43.8144L51.4086 76.9245C50.9763 82.0185 45.4588 87.1126 39.0286 87.1126L39.0316 87.1156Z" fill="url(#paint1_linear_289_3423)"/>
<path d="M157.885 71.1194C157.885 63.4409 151.785 58.9743 143.158 58.2781C151.083 56.3929 156.342 51.9262 156.483 45.0156C156.624 36.9875 150.942 31.8247 139.303 31.8247H114.759C103.82 31.8247 99.6805 36.3601 98.84 48.4365L97.4381 68.6067C96.5255 82.2158 100.383 86.545 113.919 86.545H137.412C149.053 86.545 157.888 81.0297 157.888 71.1194H157.885ZM134.743 69.7928C134.743 74.3282 131.027 76.7722 124.714 76.7722H118.007C118.007 76.7722 119.064 70.728 119.46 63.6501H125.908C131.168 63.6501 134.746 65.3262 134.746 69.7928H134.743ZM134.533 47.1787C134.533 51.8545 131.096 54.158 125.416 54.158H120.415C120.415 54.158 120.937 47.597 120.514 41.5946H125.905C131.096 41.5946 134.53 43.5486 134.53 47.1787H134.533ZM80.5342 31.1943C75.7641 31.1943 71.6965 33.217 67.911 38.8728L52.6222 61.6961L53.955 43.8294C54.4473 37.5463 50.6589 31.1973 42.6647 31.1973C35.6522 31.1973 31.5846 35.3144 31.0923 41.5976L28.7087 74.2625C28.0783 82.6371 32.284 87.035 39.2275 87.035C45.6787 87.035 50.0285 82.4996 53.1145 77.8926L67.911 55.8371L66.5782 74.2625C66.0168 81.9409 69.7332 87.035 77.4482 87.035C84.3917 87.035 88.9486 83.1271 89.3689 76.8439L91.7524 43.8294C92.1727 37.5463 89.0177 31.1973 80.5312 31.1973L80.5342 31.1943Z" fill="url(#paint2_linear_289_3423)"/>
<path d="M214.745 31.1943C209.975 31.1943 205.907 33.217 202.122 38.8728L186.833 61.6961L188.166 43.8294C188.658 37.5463 184.87 31.1973 176.876 31.1973C169.863 31.1973 165.796 35.3144 165.303 41.5976L162.92 74.2625C162.289 82.6371 166.495 87.035 173.438 87.035C179.89 87.035 184.239 82.4996 187.325 77.8926L202.122 55.8371L200.789 74.2625C200.228 81.9409 203.944 87.035 211.659 87.035C218.603 87.035 223.16 83.1271 223.58 76.8439L225.963 43.8294C226.384 37.5463 223.229 31.1973 214.742 31.1973L214.745 31.1943Z" fill="white"/>
<defs>
<radialGradient id="paint0_radial_289_3423" cx="0" cy="0" r="1" gradientUnits="userSpaceOnUse" gradientTransform="translate(83.6082 88.9329) rotate(-115.666) scale(114.733 115.074)">
<stop offset="0.68" stop-color="#F30745"/>
<stop offset="1" stop-color="#FFBCCE"/>
</radialGradient>
<linearGradient id="paint1_linear_289_3423" x1="36.1107" y1="86.6913" x2="42.5179" y2="52.0825" gradientUnits="userSpaceOnUse">
<stop offset="0.15" stop-color="white"/>
<stop offset="0.62" stop-color="white" stop-opacity="0.6"/>
<stop offset="1" stop-color="white" stop-opacity="0"/>
</linearGradient>
<linearGradient id="paint2_linear_289_3423" x1="64.8881" y1="44.9648" x2="48.1898" y2="35.6415" gradientUnits="userSpaceOnUse">
<stop offset="0.15" stop-color="white"/>
<stop offset="0.62" stop-color="white" stop-opacity="0.6"/>
<stop offset="1" stop-color="white" stop-opacity="0"/>
</linearGradient>
</defs>
</svg>
