<svg width="1000" height="1000" viewBox="0 0 1000 1000" fill="none" xmlns="http://www.w3.org/2000/svg">
<rect width="1000" height="1000" rx="232" fill="white"/>
<circle cx="500" cy="500" r="416.667" fill="white"/>
<path fill-rule="evenodd" clip-rule="evenodd" d="M83.3333 500C83.3333 677.882 194.826 829.757 351.736 889.514C347.917 856.979 343.854 803.333 352.604 765.695C360.139 733.333 401.25 559.514 401.25 559.514C401.25 559.514 388.854 534.688 388.854 497.917C388.854 440.278 422.257 397.222 463.889 397.222C499.306 397.222 516.389 423.785 516.389 455.625C516.389 491.215 493.715 544.41 482.014 593.75C472.257 635.035 502.743 668.715 543.438 668.715C617.153 668.715 673.854 590.972 673.854 478.75C673.854 379.41 602.465 310 500.556 310C382.569 310 313.299 398.507 313.299 490C313.299 525.66 327.014 563.854 344.167 584.653C347.535 588.785 348.056 592.361 347.049 596.563C343.889 609.688 336.875 637.847 335.521 643.611C333.681 651.181 329.514 652.813 321.632 649.132C269.826 625.035 237.465 549.306 237.465 488.472C237.465 357.604 332.5 237.465 511.493 237.465C655.382 237.465 767.222 340 767.222 477.014C767.222 619.965 677.118 735.035 551.979 735.035C509.931 735.035 470.451 713.16 456.91 687.361C456.91 687.361 436.111 766.597 431.076 785.972C421.285 823.611 394.132 871.25 377.292 898.299C416.111 910.243 457.292 916.667 500 916.667C730.104 916.667 916.667 730.104 916.667 500C916.667 269.896 730.104 83.3334 500 83.3334C269.896 83.3334 83.3333 269.896 83.3333 500" fill="#E60023"/>
</svg>
